<svg xmlns="http://www.w3.org/2000/svg" width="600" height="800" viewBox="0 0 600 800" role="img"><title>nearArm — victime et sauveteur vus de dessus</title><rect width="600" height="800" fill="white"/><ellipse cx="398" cy="445" rx="99" ry="291" fill="#eef1f4" stroke="none" stroke-width="2"/><ellipse cx="154" cy="416" rx="91" ry="115" fill="#eef1f4" stroke="none" stroke-width="2"/><path d="M400 209 L400 243" fill="none" stroke="#354557" stroke-width="33" stroke-linecap="round" stroke-linejoin="round" /><path d="M400 209 L400 243" fill="none" stroke="#edb68e" stroke-width="29" stroke-linecap="round" stroke-linejoin="round" /><path d="M372 429 L369 555 L367 685" fill="none" stroke="#354557" stroke-width="46" stroke-linecap="round" stroke-linejoin="round" /><path d="M372 429 L369 555 L367 685" fill="none" stroke="#394759" stroke-width="42" stroke-linecap="round" stroke-linejoin="round" /><g transform="translate(367 704) rotate(0)"><path d="M-15 -13 Q0 -19 15 -12 L19 22 Q15 34 -6 35 Q-23 34 -22 25 Z" fill="#253c56" stroke="#354557" stroke-width="2" stroke-linecap="round" stroke-linejoin="round" /><path d="M-20 25 Q-4 30 18 21" fill="none" stroke="#e7edf1" stroke-width="5" stroke-linecap="round" stroke-linejoin="round" /><path d="M-10 -1 L10 0 M-10 6 L11 7 M-10 13 L12 14" fill="none" stroke="#98afc0" stroke-width="2" stroke-linecap="round" stroke-linejoin="round" /></g><path d="M426 429 L430 555 L433 685" fill="none" stroke="#354557" stroke-width="46" stroke-linecap="round" stroke-linejoin="round" /><path d="M426 429 L430 555 L433 685" fill="none" stroke="#394759" stroke-width="42" stroke-linecap="round" stroke-linejoin="round" /><g transform="translate(433 704) rotate(0)"><path d="M-15 -13 Q0 -19 15 -12 L19 22 Q15 34 -6 35 Q-23 34 -22 25 Z" fill="#253c56" stroke="#354557" stroke-width="2" stroke-linecap="round" stroke-linejoin="round" /><path d="M-20 25 Q-4 30 18 21" fill="none" stroke="#e7edf1" stroke-width="5" stroke-linecap="round" stroke-linejoin="round" /><path d="M-10 -1 L10 0 M-10 6 L11 7 M-10 13 L12 14" fill="none" stroke="#98afc0" stroke-width="2" stroke-linecap="round" stroke-linejoin="round" /></g><path d="M365 228 Q400 219 434 232 L458 249 L449 286 L436 282 L444 419 Q413 439 351 422 L358 282 L340 286 L329 252 Z" fill="#cbd4da" stroke="#354557" stroke-width="2" stroke-linecap="round" stroke-linejoin="round" /><path d="M381 228 Q396 245 416 231" fill="none" stroke="#899aa8" stroke-width="2" stroke-linecap="round" stroke-linejoin="round" /><path d="M367 390 Q402 401 433 395 M369 402 Q399 414 438 407 M430 290 L433 377" fill="none" stroke="#a8b6c1" stroke-width="2" stroke-linecap="round" stroke-linejoin="round" /><path d="M349 268 L280 263 L277 192" fill="none" stroke="#354557" stroke-width="31" stroke-linecap="round" stroke-linejoin="round" /><path d="M349 268 L280 263 L277 192" fill="none" stroke="#edb68e" stroke-width="27" stroke-linecap="round" stroke-linejoin="round" /><g transform="translate(277 185) rotate(0) scale(0.73)"><path d="M-10 5 L-12 -10 Q-15 -19 -18 -25 Q-21 -32 -17 -34 Q-13 -35 -9 -25 L-7 -20 L-8 -43 Q-8 -49 -4 -49 Q0 -49 0 -43 L1 -29 L1 -50 Q1 -56 5 -56 Q9 -56 9 -50 L9 -29 L10 -46 Q10 -52 14 -51 Q18 -51 18 -45 L18 -25 L20 -38 Q21 -43 24 -42 Q28 -41 26 -35 L23 -15 Q22 -3 13 5 Z" fill="#edb68e" stroke="#354557" stroke-width="1.8" stroke-linecap="round" stroke-linejoin="round" /><path d="M-7 -18 Q4 -24 16 -16 M-5 -7 Q2 -14 10 -10 M-7 -20 Q0 -15 -1 -5" fill="none" stroke="#d8946d" stroke-width="1.3" stroke-linecap="round" stroke-linejoin="round" /></g><path d="M139 403 L103 454 L132 480" fill="none" stroke="#354557" stroke-width="42" stroke-linecap="round" stroke-linejoin="round" /><path d="M139 403 L103 454 L132 480" fill="none" stroke="#394759" stroke-width="38" stroke-linecap="round" stroke-linejoin="round" /><g transform="translate(95 475) rotate(80)"><path d="M-15 -13 Q0 -19 15 -12 L19 22 Q15 34 -6 35 Q-23 34 -22 25 Z" fill="#253c56" stroke="#354557" stroke-width="2" stroke-linecap="round" stroke-linejoin="round" /><path d="M-20 25 Q-4 30 18 21" fill="none" stroke="#e7edf1" stroke-width="5" stroke-linecap="round" stroke-linejoin="round" /><path d="M-10 -1 L10 0 M-10 6 L11 7 M-10 13 L12 14" fill="none" stroke="#98afc0" stroke-width="2" stroke-linecap="round" stroke-linejoin="round" /></g><path d="M193 406 L215 450 L178 481" fill="none" stroke="#354557" stroke-width="42" stroke-linecap="round" stroke-linejoin="round" /><path d="M193 406 L215 450 L178 481" fill="none" stroke="#394759" stroke-width="38" stroke-linecap="round" stroke-linejoin="round" /><g transform="translate(149 493) rotate(85)"><path d="M-15 -13 Q0 -19 15 -12 L19 22 Q15 34 -6 35 Q-23 34 -22 25 Z" fill="#253c56" stroke="#354557" stroke-width="2" stroke-linecap="round" stroke-linejoin="round" /><path d="M-20 25 Q-4 30 18 21" fill="none" stroke="#e7edf1" stroke-width="5" stroke-linecap="round" stroke-linejoin="round" /><path d="M-10 -1 L10 0 M-10 6 L11 7 M-10 13 L12 14" fill="none" stroke="#98afc0" stroke-width="2" stroke-linecap="round" stroke-linejoin="round" /></g><path d="M128 307 Q168 292 204 313 L229 350 L213 375 L209 416 Q174 443 120 414 L112 368 L99 349 Z" fill="#2778b9" stroke="#354557" stroke-width="2" stroke-linecap="round" stroke-linejoin="round" /><path d="M124 399 Q170 420 205 404 M133 318 Q159 335 177 317" fill="none" stroke="#175d94" stroke-width="2" stroke-linecap="round" stroke-linejoin="round" /><path d="M451 270 L467 337 L473 402" fill="none" stroke="#354557" stroke-width="31" stroke-linecap="round" stroke-linejoin="round" /><path d="M451 270 L467 337 L473 402" fill="none" stroke="#edb68e" stroke-width="27" stroke-linecap="round" stroke-linejoin="round" /><g transform="translate(473 416) rotate(180) scale(0.7)"><path d="M-10 5 L-12 -10 Q-15 -19 -18 -25 Q-21 -32 -17 -34 Q-13 -35 -9 -25 L-7 -20 L-8 -43 Q-8 -49 -4 -49 Q0 -49 0 -43 L1 -29 L1 -50 Q1 -56 5 -56 Q9 -56 9 -50 L9 -29 L10 -46 Q10 -52 14 -51 Q18 -51 18 -45 L18 -25 L20 -38 Q21 -43 24 -42 Q28 -41 26 -35 L23 -15 Q22 -3 13 5 Z" fill="#edb68e" stroke="#354557" stroke-width="1.8" stroke-linecap="round" stroke-linejoin="round" /><path d="M-5 -43 l4 0" fill="none" stroke="#d8946d" stroke-width="1.2" stroke-linecap="round" stroke-linejoin="round" /><path d="M3 -49 l4 0" fill="none" stroke="#d8946d" stroke-width="1.2" stroke-linecap="round" stroke-linejoin="round" /><path d="M12 -44 l4 0" fill="none" stroke="#d8946d" stroke-width="1.2" stroke-linecap="round" stroke-linejoin="round" /><path d="M21 -35 l4 0" fill="none" stroke="#d8946d" stroke-width="1.2" stroke-linecap="round" stroke-linejoin="round" /><path d="M-5 -5 L-3 -23 M5 -5 L7 -22 M14 -5 L16 -20" fill="none" stroke="#d8946d" stroke-width="1" stroke-linecap="round" stroke-linejoin="round" /></g><path d="M120 345 L200 260 L267 202" fill="none" stroke="#354557" stroke-width="31" stroke-linecap="round" stroke-linejoin="round" /><path d="M120 345 L200 260 L267 202" fill="none" stroke="#edb68e" stroke-width="27" stroke-linecap="round" stroke-linejoin="round" /><path d="M214 345 L240 304 L272 276" fill="none" stroke="#354557" stroke-width="31" stroke-linecap="round" stroke-linejoin="round" /><path d="M214 345 L240 304 L272 276" fill="none" stroke="#edb68e" stroke-width="27" stroke-linecap="round" stroke-linejoin="round" /><g transform="translate(267 202) rotate(10) scale(0.62)"><path d="M-10 5 L-12 -10 Q-15 -19 -18 -25 Q-21 -32 -17 -34 Q-13 -35 -9 -25 L-7 -20 L-8 -43 Q-8 -49 -4 -49 Q0 -49 0 -43 L1 -29 L1 -50 Q1 -56 5 -56 Q9 -56 9 -50 L9 -29 L10 -46 Q10 -52 14 -51 Q18 -51 18 -45 L18 -25 L20 -38 Q21 -43 24 -42 Q28 -41 26 -35 L23 -15 Q22 -3 13 5 Z" fill="#edb68e" stroke="#354557" stroke-width="1.8" stroke-linecap="round" stroke-linejoin="round" /><path d="M-7 -18 Q4 -24 16 -16 M-5 -7 Q2 -14 10 -10 M-7 -20 Q0 -15 -1 -5" fill="none" stroke="#d8946d" stroke-width="1.3" stroke-linecap="round" stroke-linejoin="round" /></g><g transform="translate(272 276) rotate(35) scale(0.62)"><path d="M-10 5 L-12 -10 Q-15 -19 -18 -25 Q-21 -32 -17 -34 Q-13 -35 -9 -25 L-7 -20 L-8 -43 Q-8 -49 -4 -49 Q0 -49 0 -43 L1 -29 L1 -50 Q1 -56 5 -56 Q9 -56 9 -50 L9 -29 L10 -46 Q10 -52 14 -51 Q18 -51 18 -45 L18 -25 L20 -38 Q21 -43 24 -42 Q28 -41 26 -35 L23 -15 Q22 -3 13 5 Z" fill="#edb68e" stroke="#354557" stroke-width="1.8" stroke-linecap="round" stroke-linejoin="round" /><path d="M-7 -18 Q4 -24 16 -16 M-5 -7 Q2 -14 10 -10 M-7 -20 Q0 -15 -1 -5" fill="none" stroke="#d8946d" stroke-width="1.3" stroke-linecap="round" stroke-linejoin="round" /></g><ellipse cx="400" cy="166" rx="38" ry="47" fill="#edb68e" stroke="#354557" stroke-width="2"/><ellipse cx="362" cy="171" rx="5" ry="10" fill="#edb68e" stroke="#354557" stroke-width="2"/><ellipse cx="438" cy="171" rx="5" ry="10" fill="#edb68e" stroke="#354557" stroke-width="2"/><path d="M363 156 Q359 111 393 116 Q423 106 438 136 L439 158 L429 143 Q409 146 386 133 L371 153 Z" fill="#42352e" stroke="#354557" stroke-width="2" stroke-linecap="round" stroke-linejoin="round" /><path d="M376 164 Q382 168 388 164 M408 164 Q414 168 422 164 M399 167 L395 184 L402 186 M388 196 Q400 200 411 194" fill="none" stroke="#674634" stroke-width="2" stroke-linecap="round" stroke-linejoin="round" /><ellipse cx="170" cy="304" rx="35" ry="39" fill="#4b382c" stroke="#354557" stroke-width="2"/><path d="M137 291 Q149 263 176 269 Q204 274 204 303 M146 280 Q169 293 195 282 M139 299 Q165 312 192 296" fill="none" stroke="#654d3c" stroke-width="3" stroke-linecap="round" stroke-linejoin="round" /><ellipse cx="135" cy="315" rx="4" ry="7" fill="#edb68e" stroke="#354557" stroke-width="2"/><ellipse cx="203" cy="315" rx="4" ry="7" fill="#edb68e" stroke="#354557" stroke-width="2"/></svg>